ffmpeg version 4.2.7-0ubuntu0.1 Copyright (c) 2000-2022 the FFmpeg developers
  built with gcc 9 (Ubuntu 9.4.0-1ubuntu1~20.04.1)
  configuration: --prefix=/usr --extra-version=0ubuntu0.1 --toolchain=hardened --libdir=/usr/lib/x86_64-linux-gnu --incdir=/usr/include/x86_64-linux-gnu --arch=amd64 --enable-gpl --disable-stripping --enable-avresample --disable-filter=resample --enable-avisynth --enable-gnutls --enable-ladspa --enable-libaom --enable-libass --enable-libbluray --enable-libbs2b --enable-libcaca --enable-libcdio --enable-libcodec2 --enable-libflite --enable-libfontconfig --enable-libfreetype --enable-libfribidi --enable-libgme --enable-libgsm --enable-libjack --enable-libmp3lame --enable-libmysofa --enable-libopenjpeg --enable-libopenmpt --enable-libopus --enable-libpulse --enable-librsvg --enable-librubberband --enable-libshine --enable-libsnappy --enable-libsoxr --enable-libspeex --enable-libssh --enable-libtheora --enable-libtwolame --enable-libvidstab --enable-libvorbis --enable-libvpx --enable-libwavpack --enable-libwebp --enable-libx265 --enable-libxml2 --enable-libxvid --enable-libzmq --enable-libzvbi --enable-lv2 --enable-omx --enable-openal --enable-opencl --enable-opengl --enable-sdl2 --enable-libdc1394 --enable-libdrm --enable-libiec61883 --enable-nvenc --enable-chromaprint --enable-frei0r --enable-libx264 --enable-shared
  libavutil      56. 31.100 / 56. 31.100
  libavcodec     58. 54.100 / 58. 54.100
  libavformat    58. 29.100 / 58. 29.100
  libavdevice    58.  8.100 / 58.  8.100
  libavfilter     7. 57.100 /  7. 57.100
  libavresample   4.  0.  0 /  4.  0.  0
  libswscale      5.  5.100 /  5.  5.100
  libswresample   3.  5.100 /  3.  5.100
  libpostproc    55.  5.100 / 55.  5.100
Routing option strict to both codec and muxer layer
[h264 @ 0x5631a9f58800] Reinit context to 832x464, pix_fmt: yuv420p
Input #0, mov,mp4,m4a,3gp,3g2,mj2, from '/var/www/html/project/media/video/original/c38f7a05-a02f-4b37-809c-dd22852fb294.mp4':
  Metadata:
    major_brand     : mp42
    minor_version   : 0
    compatible_brands: mp42isom
  Duration: 00:00:21.39, start: 0.000000, bitrate: 1205 kb/s
    Stream #0:0(und): Video: h264 (Baseline), 1 reference frame (avc1 / 0x31637661), yuv420p(tv, bt709, left), 832x464, 1151 kb/s, 30 fps, 30 tbr, 600 tbn, 1200 tbc (default)
    Stream #0:1(und): Audio: aac (LC) (mp4a / 0x6134706D), 44100 Hz, stereo, fltp, 55 kb/s (default)
Input #1, png_pipe, from '/var/www/html/project/static/images/templates/logo.png':
  Duration: N/A, bitrate: N/A
    Stream #1:0: Video: png, 1 reference frame, rgba(pc), 1920x1080 [SAR 2835:2835 DAR 16:9], 25 tbr, 25 tbn, 25 tbc
[Parsed_scale_0 @ 0x5631a9f98100] w:1280 h:720 flags:'bilinear' interl:0
[Parsed_scale_2 @ 0x5631aa1a9000] w:1280 h:720 flags:'bilinear' interl:0
Stream mapping:
  Stream #0:0 (h264) -> scale (graph 0)
  Stream #1:0 (png) -> scale (graph 0)
  overlay (graph 0) -> Stream #0:0 (libx264)
  Stream #0:1 -> #0:1 (aac (native) -> aac (native))
Press [q] to stop, [?] for help
[h264 @ 0x5631aa13be80] Reinit context to 832x464, pix_fmt: yuv420p
[graph_1_in_0_1 @ 0x5631aa49cb80] tb:1/44100 samplefmt:fltp samplerate:44100 chlayout:0x3
[Parsed_scale_0 @ 0x5631aa633080] w:1280 h:720 flags:'bilinear' interl:0
[Parsed_scale_2 @ 0x5631aa637900] w:1280 h:720 flags:'bilinear' interl:0
[graph 0 input from stream 0:0 @ 0x5631aa639d80] w:832 h:464 pixfmt:yuv420p tb:1/600 fr:30/1 sar:0/1 sws_param:flags=2
[graph 0 input from stream 1:0 @ 0x5631aa63ae00] w:1920 h:1080 pixfmt:rgba tb:1/25 fr:25/1 sar:2835/2835 sws_param:flags=2
[Parsed_scale_0 @ 0x5631aa633080] w:832 h:464 fmt:yuv420p sar:0/1 -> w:1280 h:720 fmt:yuv420p sar:0/1 flags:0x2
[Parsed_setsar_1 @ 0x5631aa637200] w:1280 h:720 sar:0/1 dar:16/9 -> sar:1/1 dar:16/9
[Parsed_scale_2 @ 0x5631aa637900] w:1920 h:1080 fmt:rgba sar:2835/2835 -> w:1280 h:720 fmt:yuva420p sar:1/1 flags:0x2
[Parsed_setsar_3 @ 0x5631aa638340] w:1280 h:720 sar:1/1 dar:16/9 -> sar:1/1 dar:16/9
[Parsed_overlay_4 @ 0x5631aa638fc0] main w:1280 h:720 fmt:yuv420p overlay w:1280 h:720 fmt:yuva420p
[Parsed_overlay_4 @ 0x5631aa638fc0] [framesync @ 0x5631aa6390e8] Selected 1/600 time base
[Parsed_overlay_4 @ 0x5631aa638fc0] [framesync @ 0x5631aa6390e8] Sync level 2
[libx264 @ 0x5631a9f92c40] using SAR=1/1
[libx264 @ 0x5631a9f92c40] using cpu capabilities: MMX2 SSE2Fast SSSE3 SSE4.2 AVX FMA3 BMI2 AVX2
[libx264 @ 0x5631a9f92c40] profile High, level 3.1
[libx264 @ 0x5631a9f92c40] 264 - core 155 r2917 0a84d98 - H.264/MPEG-4 AVC codec - Copyleft 2003-2018 - http://www.videolan.org/x264.html - options: cabac=1 ref=1 deblock=1:0:0 analyse=0x3:0x113 me=hex subme=2 psy=1 psy_rd=1.00:0.00 mixed_ref=0 me_range=16 chroma_me=1 trellis=0 8x8dct=1 cqm=0 deadzone=21,11 fast_pskip=1 chroma_qp_offset=0 threads=22 lookahead_threads=5 sliced_threads=0 nr=0 decimate=1 interlaced=0 bluray_compat=0 constrained_intra=0 bframes=3 b_pyramid=2 b_adapt=1 b_bias=0 direct=1 weightb=1 open_gop=0 weightp=1 keyint=250 keyint_min=25 scenecut=40 intra_refresh=0 rc_lookahead=10 rc=crf mbtree=1 crf=18.0 qcomp=0.60 qpmin=0 qpmax=69 qpstep=4 ip_ratio=1.40 aq=1:1.00
Output #0, mp4, to '/var/www/html/project/media/video/watermarks/c38f7a05-a02f-4b37-809c-dd22852fb294.mp4':
  Metadata:
    major_brand     : mp42
    minor_version   : 0
    compatible_brands: mp42isom
    encoder         : Lavf58.29.100
    Stream #0:0: Video: h264 (libx264), 1 reference frame (avc1 / 0x31637661), yuv420p, 1280x720 [SAR 1:1 DAR 16:9], q=-1--1, 30 fps, 15360 tbn, 30 tbc (default)
    Metadata:
      encoder         : Lavc58.54.100 libx264
    Side data:
      cpb: bitrate max/min/avg: 0/0/0 buffer size: 0 vbv_delay: -1
    Stream #0:1(und): Audio: aac (LC) (mp4a / 0x6134706D), 44100 Hz, stereo, fltp, delay 1024, 128 kb/s (default)
    Metadata:
      encoder         : Lavc58.54.100 aac
[Parsed_overlay_4 @ 0x5631aa638fc0] [framesync @ 0x5631aa6390e8] Sync level 0
No more output streams to write to, finishing.
frame=  639 fps=166 q=-1.0 Lsize=    9104kB time=00:00:21.38 bitrate=3487.6kbits/s speed=5.54x    
[AVIOContext @ 0x5631a9f56b40] Statistics: 0 seeks, 8 writeouts
video:8745kB audio:337kB subtitle:0kB other streams:0kB global headers:0kB muxing overhead: 0.250084%
Input file #0 (/var/www/html/project/media/video/original/c38f7a05-a02f-4b37-809c-dd22852fb294.mp4):
  Input stream #0:0 (video): 639 packets read (3066211 bytes); 639 frames decoded; 
  Input stream #0:1 (audio): 921 packets read (149140 bytes); 921 frames decoded (943104 samples); 
  Total: 1560 packets (3215351 bytes) demuxed
Input file #1 (/var/www/html/project/static/images/templates/logo.png):
  Input stream #1:0 (video): 1 packets read (111578 bytes); 1 frames decoded; 
  Total: 1 packets (111578 bytes) demuxed
Output file #0 (/var/www/html/project/media/video/watermarks/c38f7a05-a02f-4b37-809c-dd22852fb294.mp4):
  Output stream #0:0 (video): 639 frames encoded; 639 packets muxed (8954641 bytes); 
  Output stream #0:1 (audio): 921 frames encoded (943104 samples); 922 packets muxed (345034 bytes); 
  Total: 1561 packets (9299675 bytes) muxed
[AVIOContext @ 0x5631aa025900] Statistics: 2 seeks, 39 writeouts
[libx264 @ 0x5631a9f92c40] frame I:3     Avg QP:15.68  size: 42503
[libx264 @ 0x5631a9f92c40] frame P:309   Avg QP:18.57  size: 20752
[libx264 @ 0x5631a9f92c40] frame B:327   Avg QP:19.01  size:  7383
[libx264 @ 0x5631a9f92c40] consecutive B-frames: 26.8% 12.5%  7.5% 53.2%
[libx264 @ 0x5631a9f92c40] mb I  I16..4: 28.8% 43.0% 28.2%
[libx264 @ 0x5631a9f92c40] mb P  I16..4: 16.1% 23.8%  3.8%  P16..4: 21.4% 14.0%  6.7%  0.0%  0.0%    skip:14.1%
[libx264 @ 0x5631a9f92c40] mb B  I16..4:  4.9%  4.0%  0.1%  B16..8: 26.2% 11.3%  0.9%  direct: 8.4%  skip:44.1%  L0:44.0% L1:44.5% BI:11.6%
[libx264 @ 0x5631a9f92c40] 8x8 transform intra:52.6% inter:32.8%
[libx264 @ 0x5631a9f92c40] coded y,uvDC,uvAC intra: 42.5% 22.7% 7.9% inter: 13.6% 12.9% 1.2%
[libx264 @ 0x5631a9f92c40] i16 v,h,dc,p: 34% 53%  7%  6%
[libx264 @ 0x5631a9f92c40] i8 v,h,dc,ddl,ddr,vr,hd,vl,hu: 10% 63% 13%  2%  2%  1%  4%  1%  4%
[libx264 @ 0x5631a9f92c40] i4 v,h,dc,ddl,ddr,vr,hd,vl,hu: 16% 46% 10%  3%  5%  5%  6%  3%  6%
[libx264 @ 0x5631a9f92c40] i8c dc,h,v,p: 69% 17% 11%  3%
[libx264 @ 0x5631a9f92c40] Weighted P-Frames: Y:1.0% UV:0.0%
[libx264 @ 0x5631a9f92c40] kb/s:3362.99
[aac @ 0x5631aa03e3c0] Qavg: 695.807
[AVIOContext @ 0x5631a9f5fac0] Statistics: 3223474 bytes read, 0 seeks
[AVIOContext @ 0x5631a9f68e00] Statistics: 111578 bytes read, 0 seeks
